# Blender 3.5.0
# www.blender.org
mtllib ice projectile.mtl
o ice
v -0.208599 0.214788 -0.214788
v -0.275179 -0.214788 -0.214788
v -0.224021 0.214788 0.214788
v -0.275179 -0.214788 0.214788
v -0.860588 0.000000 -0.000000
v 1.151094 -0.000000 0.000000
v -0.226755 0.000000 -0.309790
v -0.104851 0.022362 0.265823
v -0.556630 0.135619 0.155171
v -0.104851 0.287429 0.000756
v -0.226755 -0.295621 -0.000000
v -0.502133 0.135619 -0.135619
v 0.601893 0.120147 0.133685
v -0.556630 -0.135619 0.135619
v -0.556630 -0.135619 -0.135619
v 0.553034 -0.122185 0.132506
v 0.549666 0.132279 -0.132201
v 0.551963 -0.126236 -0.126236
v -0.576398 0.211335 0.000000
v -0.642979 0.000000 0.211335
v -0.576398 -0.211335 0.000000
v 0.414247 -0.012267 0.221951
v -0.576398 0.000000 -0.211335
v 0.408249 0.014819 -0.221559
v 0.348275 -0.195246 -0.011162
v 0.422994 0.188690 0.017973
v 0.625464 0.003021 -0.138855
v 0.812996 -0.001019 0.106739
v 0.501705 -0.141529 -0.000619
vn -0.2995 0.9384 -0.1721
vn -0.4717 0.6343 -0.6125
vn -0.2823 0.8475 0.4495
vn -0.3692 -0.6211 0.6914
vn -0.2049 0.1304 0.9701
vn -0.5598 0.5952 0.5765
vn -0.5262 -0.7076 0.4717
vn -0.3614 -0.7907 -0.4941
vn -0.2236 -0.9278 0.2987
vn 0.1355 0.4094 0.9022
vn 0.0646 -0.2541 0.9650
vn 0.2761 -0.4072 0.8706
vn -0.5262 -0.4717 -0.7076
vn -0.3383 0.4044 -0.8497
vn -0.2546 -0.3426 -0.9043
vn 0.1426 -0.4504 -0.8814
vn 0.1175 0.3934 -0.9118
vn 0.2515 0.1963 -0.9478
vn 0.1347 -0.9475 0.2898
vn 0.1521 -0.9132 -0.3780
vn 0.2129 -0.9765 -0.0337
vn 0.1316 0.9594 -0.2494
vn 0.1565 0.9055 0.3945
vn 0.2443 0.9575 -0.1536
vn -0.5324 -0.6450 0.5482
vn -0.4717 0.6125 -0.6343
vn -0.5262 -0.7076 -0.4717
vn -0.5406 0.7269 0.4236
vn 0.2510 0.9519 0.1758
vn 0.3561 0.2551 -0.8989
vn 0.3294 -0.9441 0.0168
vn 0.4811 -0.1012 0.8708
vn -0.0937 -0.1447 0.9850
vn -0.1086 0.4386 0.8921
vn -0.1551 0.9586 0.2390
vn 0.1397 0.9315 0.3358
vn 0.1007 0.3128 0.9445
vn 0.1815 0.9021 -0.3914
vn 0.1465 0.4812 -0.8643
vn -0.1335 0.8324 -0.5378
vn -0.2235 0.5656 -0.7938
vn -0.3614 -0.4941 -0.7907
vn 0.1343 -0.4260 -0.8947
vn 0.1349 -0.9367 -0.3230
vn -0.3614 -0.7907 0.4941
vn -0.2236 -0.9278 -0.2987
vn 0.1662 -0.9100 0.3799
vn 0.1414 -0.5113 0.8477
vn 0.3290 -0.2753 -0.9033
vn 0.3298 -0.9440 0.0100
vn 0.2125 -0.9753 0.0598
vn 0.2472 -0.2324 -0.9407
vn 0.2867 0.2969 0.9109
vn 0.1112 -0.0272 0.9934
vt 0.491610 0.308930
vt 0.291763 0.293354
vt 0.705671 0.336291
vt 0.099685 0.344154
vt 0.917853 0.395888
vt 0.925489 0.089999
vt 0.397890 0.046844
vt 0.133024 0.083807
vt 0.646927 0.005974
vt 0.483508 0.960732
vt 0.366786 0.962505
vt 0.426942 0.955569
vt 0.537936 0.988714
vt 0.384471 0.297598
vt 0.771690 0.424970
vt 0.705664 0.168293
vt 0.802930 0.198730
vt 0.588430 0.371170
vt 0.199444 0.331950
vt 0.548727 0.168016
vt 0.455740 0.188820
vt 0.592058 0.711733
vt 0.939192 0.249708
vt 0.104342 0.219506
vt 0.225711 0.187299
vt 0.329843 0.172958
vt 0.235009 0.705140
vt 0.715405 0.741382
vt 0.469451 0.664447
vt 0.350714 0.674032
vt 0.627704 0.163308
vt 0.876960 0.206825
vt 0.160877 0.187413
vt 0.691702 0.648376
vt 0.386596 0.150959
vt 0.406906 0.594095
vt 0.273714 0.591545
vt 0.552494 0.613835
vt 0.410627 0.702091
vt 0.606979 0.830990
vt 0.288140 0.665033
s 0
usemtl Material.001
f 12/20/1 10/18/1 1/1/1
f 5/9/2 19/31/2 12/20/2
f 3/3/3 19/31/3 9/16/3
f 4/5/4 20/32/4 14/23/4
f 9/17/5 8/15/5 3/3/5
f 5/6/6 20/32/6 9/17/6
f 5/8/7 21/33/7 14/24/7
f 2/2/8 21/33/8 15/25/8
f 4/4/9 21/33/9 11/19/9
f 3/3/10 22/34/10 13/22/10
f 4/5/11 22/34/11 8/15/11
f 28/40/12 16/28/12 6/13/12
f 5/7/13 23/35/13 15/26/13
f 7/14/14 12/21/14 1/1/14
f 2/2/15 23/35/15 7/14/15
f 2/2/16 24/36/16 18/30/16
f 1/1/17 24/36/17 7/14/17
f 27/39/18 17/29/18 6/12/18
f 4/4/19 25/37/19 16/27/19
f 2/2/20 25/37/20 11/19/20
f 29/41/21 18/30/21 6/11/21
f 1/1/22 26/38/22 17/29/22
f 3/3/23 26/38/23 10/18/23
f 6/10/24 17/29/24 26/38/24
f 5/6/25 14/23/25 20/32/25
f 5/7/26 12/21/26 23/35/26
f 5/8/27 15/25/27 21/33/27
f 5/9/28 9/16/28 19/31/28
f 13/22/29 6/10/29 26/38/29
f 24/36/30 17/29/30 27/39/30
f 25/37/31 18/30/31 29/41/31
f 13/22/32 22/34/32 16/28/32
f 4/5/33 8/15/33 20/32/33
f 9/17/34 20/32/34 8/15/34
f 3/3/35 10/18/35 19/31/35
f 3/3/36 13/22/36 26/38/36
f 3/3/37 8/15/37 22/34/37
f 1/1/38 10/18/38 26/38/38
f 1/1/39 17/29/39 24/36/39
f 12/20/40 19/31/40 10/18/40
f 7/14/41 23/35/41 12/21/41
f 2/2/42 15/26/42 23/35/42
f 2/2/43 7/14/43 24/36/43
f 2/2/44 18/30/44 25/37/44
f 4/4/45 14/24/45 21/33/45
f 2/2/46 11/19/46 21/33/46
f 4/4/47 11/19/47 25/37/47
f 4/5/48 16/28/48 22/34/48
f 24/36/49 27/39/49 18/30/49
f 16/27/50 25/37/50 29/41/50
f 16/27/51 29/41/51 6/11/51
f 18/30/52 27/39/52 6/12/52
f 13/22/53 28/40/53 6/13/53
f 13/22/54 16/28/54 28/40/54
